<?xml version="1.0" encoding="utf-8"?>
<!-- Generator: Adobe Illustrator 14.0.0, SVG Export Plug-In . SVG Version: 6.00 Build 43363)  -->
<!DOCTYPE svg PUBLIC "-//W3C//DTD SVG 1.1//EN" "http://www.w3.org/Graphics/SVG/1.1/DTD/svg11.dtd">
<svg version="1.1" id="Layer_1" xmlns="http://www.w3.org/2000/svg" xmlns:xlink="http://www.w3.org/1999/xlink" x="0px" y="0px"
	 width="600px" height="600px" viewBox="0 0 600 600" enable-background="new 0 0 600 600" xml:space="preserve">
<path fill="#29ABE2" d="M482.637,349.385c-12.258-11.646-26.412-23.665-42.075-35.786c13.897-12.104,26.226-24.469,36.635-36.829
	c31.069-36.893,41.458-69.624,29.252-92.162c-5.869-10.839-16.53-18.62-31.688-23.128c-8.785-2.613-18.834-4.064-29.896-4.422
	c5.513-13.676,10.462-26.833,14.771-39.332c3.326-9.649,6.586-19.822,9.432-29.952c6.259,0.379,12.183-3.559,14.045-9.828
	c2.01-6.752-1.403-13.819-7.702-16.562c4.965-25.867,4.73-47.795-7.44-54.746c-1.032-0.589-2.143-1.063-3.302-1.408
	c-22.207-6.604-61.978,33.853-91.431,68.954c-18.68,22.263-38.466,48.609-58.548,77.825c-29.502-33.047-59.756-55.906-86.205-63.771
	c-15.157-4.508-28.338-3.817-39.177,2.053c-20.041,10.853-29.513,38.23-27.248,77.822c-45.919-12.291-75.771-10.736-84.525,4.597
	c-3.51,6.146-3.349,13.526-0.698,21.518c-2.325,1.717-4.142,4.163-5.029,7.147c-2.172,7.302,1.987,14.982,9.289,17.153
	c3.09,0.919,6.245,0.694,9.025-0.413c8.702,11.829,20.011,23.71,30.879,34.036c10.443,9.923,22.268,20.118,35.226,30.415
	c-12.005,10.783-22.751,21.747-31.981,32.707c-31.069,36.893-41.459,69.623-29.252,92.161c5.869,10.839,16.53,18.619,31.688,23.127
	c9.502,2.825,20.478,4.294,32.619,4.487c-6.825,16.523-12.859,32.337-17.992,47.226c-15.224,44.155-29.026,99.271-8.332,111.087
	c1.032,0.59,2.142,1.063,3.301,1.407c22.206,6.604,61.977-33.852,91.43-68.952c19.707-23.487,40.643-51.514,61.859-82.665
	c10.161,11.141,20.393,21.05,30.511,29.549c-0.224,0.513-0.428,1.039-0.591,1.588c-2.171,7.303,1.988,14.983,9.289,17.154
	c4.635,1.378,9.414,0.199,12.85-2.705c10.821,6.982,21.351,12.098,31.335,15.066c15.157,4.507,28.338,3.817,39.176-2.052
	c18.489-10.013,27.982-34.086,27.567-68.838c46.982,12.839,77.526,11.451,86.4-4.088
	C537.771,408.39,508.906,374.346,482.637,349.385z M472.944,167.583c13.481,4.009,22.87,10.757,27.906,20.058
	c10.874,20.078,0.743,50.276-28.523,85.029c-10.446,12.406-22.879,24.823-36.921,36.974c-9.517-7.226-19.564-14.476-30.047-21.697
	c-1.817-9.136-4.809-17.848-8.807-25.976c17.619-34.484,33.068-67.782,45.726-98.565
	C453.833,163.587,464.14,164.963,472.944,167.583z M195.969,295.21c-0.36,2.822-0.604,5.679-0.737,8.566
	c-10.344-7.265-20.061-14.436-29.103-21.458c5.917-5.117,12.115-10.187,18.578-15.187
	C188.113,276.41,191.879,285.787,195.969,295.21z M169.763,182.688c-0.249-2.026-0.459-4.014-0.653-5.982
	c0.563,0.165,1.119,0.322,1.686,0.491c26.61,7.914,56.6,19.629,88.013,34.257c-7.626,3.332-14.788,7.529-21.354,12.476
	c-17.652,10.39-34.321,21.436-49.683,32.89C178.717,230.729,172.568,205.603,169.763,182.688z M190.001,263.095
	c8.61-6.474,17.67-12.812,27.077-18.988c-8.914,11.588-15.487,25.067-19.017,39.733
	C195.186,276.882,192.491,269.958,190.001,263.095z M259.646,406.44c0.61,0.83,1.215,1.681,1.828,2.503
	c-14.142,4.902-28.051,8.989-41.525,12.144c-18.617,4.358-35.757,6.84-51.021,7.441c10.266-24.22,22.195-49.883,35.448-76.338
	C215.292,376.506,235.092,395.967,259.646,406.44z M243.867,378.252c-10.736-6.039-15.88-29.746-15.88-41.151
	c0-6.039,2.684-12.077,9.393-12.077c15.88,0,13.197,35.56,54.351,35.56c4.921,0,17.222-2.462,17.222-10.958
	c0-16.103-30.641-12.079-55.468-31.984c-12.301-9.842-21.248-23.485-21.248-39.589c0-23.261,22.366-52.113,65.757-52.113
	c14.314,0,30.418,6.487,33.773,6.487c3.132,0,6.264-2.684,10.96-2.684c7.604,0,24.602,16.551,24.602,35.338
	c0,7.606-4.919,15.21-13.194,15.21c-14.985,0-23.709-25.499-46.97-25.499c-6.935,0-14.315,3.131-14.315,11.184
	c0,17.669,30.642,12.974,56.587,30.194c13.867,9.171,20.801,20.354,20.801,37.128c0,26.169-21.473,55.692-73.585,55.692
	C281.89,388.989,256.615,385.188,243.867,378.252z M356.254,217.958c-16.04-9.734-34.863-15.34-54.996-15.34
	c-3.564,0-7.087,0.179-10.561,0.522c14.396-6.7,28.769-12.663,42.938-17.798C341.401,195.662,348.964,206.57,356.254,217.958z
	 M339.968,183.098c10.973-3.803,21.801-7.109,32.398-9.876c1.709,2.225,4.098,3.959,6.992,4.82c7.302,2.171,14.98-1.987,17.152-9.29
	c0.101-0.335,0.173-0.673,0.246-1.009c13.915-2.589,26.853-4.023,38.628-4.307c-11.912,28.759-26.255,59.694-42.503,91.712
	c-6.104-10.408-13.93-19.682-23.088-27.433C360.253,211.868,350.249,196.907,339.968,183.098z M401.372,344.103
	c4.183-2.93,8.287-5.891,12.297-8.881c9.057,26.092,15.205,51.217,18.01,74.132c0.639,5.211,1.087,10.224,1.366,15.045
	c-0.07-0.021-0.138-0.04-0.209-0.061c-22.233-6.611-46.831-15.884-72.642-27.285C379.078,384.422,393.68,365.895,401.372,344.103z
	 M404.335,334.179c1.342-5.459,2.265-11.081,2.725-16.834c1.519,3.883,2.984,7.753,4.381,11.602
	C409.106,330.701,406.73,332.442,404.335,334.179z M407.098,300.63c-0.102-1.339-0.235-2.669-0.387-3.993
	c8.211,5.741,16.143,11.495,23.729,17.233c-4.425,3.711-8.994,7.395-13.704,11.04C413.786,316.879,410.562,308.773,407.098,300.63z
	 M462.853,11.333c0.692,0.205,1.352,0.487,1.959,0.834c8.075,4.61,9.389,21.696,4.298,48.09c-5.641,0.321-10.736,4.099-12.438,9.827
	c-1.851,6.224,0.907,12.711,6.283,15.838c-2.579,9.224-5.692,19.155-9.337,29.729c-4.516,13.1-9.735,26.922-15.581,41.32
	c-12.727,0.095-26.65,1.533-41.448,4.234c-1.216-4.451-4.619-8.194-9.366-9.606c-7.302-2.172-14.982,1.988-17.152,9.29
	c-0.637,2.139-0.717,4.307-0.346,6.363c-10.977,2.904-22.284,6.396-33.819,10.465c-5.596-7.304-11.258-14.271-16.958-20.861
	C386.57,58.098,442.272,5.213,462.853,11.333z M315.188,162.374c4.849,5.64,9.645,11.524,14.371,17.629
	c-11.69,4.303-23.588,9.18-35.58,14.599C301.152,183.392,308.23,172.643,315.188,162.374z M192.338,95.89
	c9.3-5.036,20.851-5.557,34.331-1.549c22.206,6.604,48.054,24.862,74.75,52.8c3.191,3.339,6.363,6.8,9.519,10.355
	c-9.16,13.465-18.37,27.506-27.557,42.023c-5.66,2.699-11.333,5.518-17.01,8.45c-33.471-15.832-65.49-28.468-93.76-36.875
	c-1.373-0.408-2.727-0.799-4.074-1.185C165.926,131.771,174.219,105.703,192.338,95.89z M95.403,214.383
	c1.269-1.448,2.262-3.176,2.847-5.142c2.171-7.302-1.988-14.982-9.29-17.154c-2.064-0.614-4.157-0.706-6.149-0.379
	c-2.078-6.47-2.039-11.827,0.251-15.839c7.12-12.47,36.573-12.765,79.475-1.028c0.247,2.818,0.547,5.691,0.906,8.622
	c2.927,23.912,9.424,50.164,19.002,77.385c-7.483,5.74-14.641,11.572-21.418,17.468C130.883,254.424,108.628,232.398,95.403,214.383
	z M128.494,424.459c-13.479-4.009-22.868-10.756-27.905-20.056c-10.874-20.078-0.742-50.275,28.525-85.029
	c9.258-10.994,20.073-21.997,32.188-32.816c10.609,8.266,21.93,16.583,33.843,24.868c0.283,11.504,2.402,22.551,6.066,32.866
	c-14.82,29.323-28.038,57.727-39.251,84.375C149.259,428.68,138.006,427.288,128.494,424.459z M138.09,588.667
	c-0.702-0.209-1.343-0.481-1.959-0.833c-12.81-7.315-8.625-46,11.194-103.484c5.347-15.509,11.678-32.029,18.873-49.321
	c28.531-0.641,62.81-7.821,99.339-20.703c6.5,8.484,13.09,16.511,19.724,24.025C216.17,540.182,159,594.886,138.09,588.667z
	 M288.987,432.827c-5.782-6.589-11.491-13.537-17.106-20.787c0.637-0.234,1.281-0.485,1.919-0.724
	c8.625,2.304,17.683,3.551,27.025,3.588C296.847,421.02,292.898,427.004,288.987,432.827z M409.102,496.153
	c-9.3,5.036-20.849,5.557-34.329,1.549c-9.221-2.742-19.075-7.522-29.353-14.143c0.192-0.456,0.363-0.923,0.507-1.407
	c2.172-7.302-1.988-14.98-9.289-17.152c-4.554-1.354-9.254-0.246-12.674,2.551c-7.852-6.63-15.855-14.187-23.94-22.646
	c-2.252-2.358-4.493-4.79-6.729-7.257c5.053-7.494,10.118-15.166,15.184-22.987c16.341-1.099,31.667-5.891,45.151-13.555
	c27.521,12.33,53.767,22.31,77.393,29.336c0.773,0.229,1.53,0.445,2.296,0.667C434.108,464.36,425.763,487.131,409.102,496.153z
	 M520.573,425.669c-7.207,12.621-37.304,12.764-81.063,0.585c-0.261-5.641-0.76-11.534-1.512-17.674
	c-2.928-23.912-9.424-50.165-19.001-77.386c5.743-4.406,11.293-8.867,16.628-13.37c15.903,12.259,30.248,24.413,42.627,36.175
	C512.548,386.587,527.973,412.71,520.573,425.669z"/>
</svg>
